<svg stroke="url(#paint0_linear_97_256)" xmlns="http://www.w3.org/2000/svg">
    <symbol viewBox="0 0 50 50" id="circle-dots">
        <circle cx="25" cy="25" r="25" fill="#70E000" />
        <path
            d="M25 15C19.48 15 15 19.48 15 25C15 30.52 19.48 35 25 35C30.52 35 35 30.52 35 25C35 19.48 30.52 15 25 15ZM21 30.5C20.337 30.5 19.7011 30.2366 19.2322 29.7678C18.7634 29.2989 18.5 28.663 18.5 28C18.5 27.337 18.7634 26.7011 19.2322 26.2322C19.7011 25.7634 20.337 25.5 21 25.5C21.663 25.5 22.2989 25.7634 22.7678 26.2322C23.2366 26.7011 23.5 27.337 23.5 28C23.5 28.663 23.2366 29.2989 22.7678 29.7678C22.2989 30.2366 21.663 30.5 21 30.5ZM22.5 21C22.5 20.337 22.7634 19.7011 23.2322 19.2322C23.7011 18.7634 24.337 18.5 25 18.5C25.663 18.5 26.2989 18.7634 26.7678 19.2322C27.2366 19.7011 27.5 20.337 27.5 21C27.5 21.663 27.2366 22.2989 26.7678 22.7678C26.2989 23.2366 25.663 23.5 25 23.5C24.337 23.5 23.7011 23.2366 23.2322 22.7678C22.7634 22.2989 22.5 21.663 22.5 21ZM29 30.5C28.337 30.5 27.7011 30.2366 27.2322 29.7678C26.7634 29.2989 26.5 28.663 26.5 28C26.5 27.337 26.7634 26.7011 27.2322 26.2322C27.7011 25.7634 28.337 25.5 29 25.5C29.663 25.5 30.2989 25.7634 30.7678 26.2322C31.2366 26.7011 31.5 27.337 31.5 28C31.5 28.663 31.2366 29.2989 30.7678 29.7678C30.2989 30.2366 29.663 30.5 29 30.5Z"
            fill="white" />
    </symbol>
    <symbol viewBox="0 0 166 43" id="bfutures">
        <path
            d="M60.2356 21.3423H52.3751V4.81315H60.0647C63.4539 4.81315 65.5204 6.50594 65.5204 9.08162V9.14926C65.5204 11.0129 64.5379 12.0631 63.3524 12.7057C65.2499 13.4515 66.4354 14.5356 66.4354 16.7713V16.8069C66.3998 19.8542 63.9612 21.3459 60.2356 21.3459V21.3423ZM61.8607 9.6886C61.8607 8.60458 61.0152 7.99581 59.4898 7.99581H55.8995V11.4846H59.253C60.8444 11.4846 61.8607 10.9773 61.8607 9.72242V9.6886ZM62.8095 16.328C62.8095 15.212 61.9978 14.5338 60.1341 14.5338H55.8977V18.1561H60.2356C61.8269 18.1561 62.8095 17.5812 62.8095 16.3619V16.3263V16.328ZM70.3995 21.3441V4.81137H74.0236V21.3441H70.3995ZM90.4887 21.3441L82.4929 10.8421V21.3441H78.9026V4.81137H82.2561L90.0134 15.0073V4.81137H93.6055V21.3441H90.4887ZM109.935 21.3441L108.41 17.6506H101.432L99.9405 21.3441H96.2132L103.294 4.67431H106.648L113.762 21.3441H109.935ZM104.921 9.07806L102.719 14.4306H107.123L104.921 9.07806ZM127.99 21.3423L119.998 10.8403V21.3423H116.406V4.81137H119.759L127.516 15.0073V4.81137H131.109V21.3441H127.992L127.99 21.3423ZM143.102 21.6449C138.223 21.6449 134.631 17.8856 134.631 13.1436V13.108C134.631 8.39987 138.189 4.57107 143.27 4.57107C146.388 4.57107 148.25 5.62128 149.776 7.11293L147.472 9.79006C146.183 8.6384 144.897 7.92817 143.236 7.92817C140.459 7.92817 138.426 10.2315 138.426 13.0777V13.1116C138.426 15.956 140.391 18.295 143.238 18.295C145.133 18.295 146.285 17.5474 147.574 16.3636L149.877 18.7008C148.182 20.4968 146.285 21.6485 143.1 21.6485L143.102 21.6449ZM152.791 21.3423V4.81137H165.258V8.06345H156.415V11.417H164.208V14.6691H156.415V18.1579H165.393V21.3441H152.791V21.3423ZM92.3862 28.0494H85.7467V31.2339H91.6403V33.0975H85.7449V37.8733H83.6801V26.1519H92.3844V28.0494H92.3862ZM104.953 32.7932C104.953 36.282 102.99 38.0442 99.9067 38.0442C96.8576 38.0442 94.9262 36.282 94.9262 32.8946V26.1519H96.9928V32.7914C96.9928 34.9612 98.1107 36.1467 99.9405 36.1467C101.77 36.1467 102.888 35.0288 102.888 32.8946V26.1519H104.953V32.7914V32.7932ZM113.255 37.8733H111.188V28.0832H107.459V26.1858H116.947V28.0832H113.219V37.8733H113.253H113.255ZM129.482 32.7932C129.482 36.282 127.516 38.0442 124.433 38.0442C121.384 38.0442 119.455 36.282 119.455 32.8946V26.1519H121.52V32.7914C121.52 34.9612 122.639 36.1467 124.467 36.1467C126.297 36.1467 127.415 35.0288 127.415 32.8946V26.1519H129.482V32.7914V32.7932ZM140.56 37.8733L137.68 33.8078H135.106V37.8733H133.038V26.1519H138.254C140.931 26.1519 142.591 27.5759 142.591 29.8793C142.591 31.8106 141.44 32.9943 139.815 33.4357L142.965 37.8733H140.559H140.56ZM138.122 28.0476H135.138V31.9797H138.154C139.61 31.9797 140.557 31.2 140.557 30.0146C140.525 28.7276 139.644 28.0494 138.118 28.0494L138.122 28.0476ZM154.484 28.0156H147.878V31.0648H153.74V32.8946H147.878V36.0452H154.585V37.8733H145.81V26.1519H154.484V28.0156ZM162.209 31.0986C164.683 31.7073 165.968 32.5885 165.968 34.5536C165.968 36.7555 164.242 38.078 161.803 38.078C160 38.0939 158.257 37.4282 156.924 36.2143L158.177 34.7565C159.295 35.7391 160.413 36.282 161.869 36.282C163.158 36.282 163.936 35.7053 163.936 34.7903C163.936 33.9448 163.462 33.4696 161.294 32.9961C158.786 32.3855 157.398 31.6735 157.398 29.4717C157.398 27.4389 159.058 26.0505 161.395 26.0505C163.088 26.0505 164.445 26.5596 165.63 27.5065L164.512 29.0658C163.462 28.2862 162.412 27.8465 161.326 27.8465C160.108 27.8465 159.43 28.4553 159.43 29.2349C159.464 30.1498 159.973 30.5557 162.207 31.0986H162.209ZM76.124 31.063H52.343V33.0299H76.124V31.0648V31.063ZM4.81137 16.5345L0 21.3423L4.81137 26.1519L9.65478 21.3423L4.81137 16.531V16.5345ZM21.3441 9.65656L29.6087 17.9229L34.4201 13.1133L26.1875 4.81315L21.3441 0L16.5327 4.81137L8.26637 13.0777L13.0777 17.8873L21.3441 9.65478V9.65656ZM37.8751 16.5345L33.0655 21.3459L37.8751 26.1555L42.7203 21.3441L37.8751 16.5327V16.5345ZM21.3441 33.0673L13.0777 24.8009L8.26637 29.6105L16.5327 37.8769L21.3423 42.7203L26.1519 37.9089L34.4183 29.6443L29.6069 24.7991L21.3423 33.0655L21.3441 33.0673ZM21.3441 26.1893L26.1875 21.3459L21.3441 16.5345L16.5327 21.3459L21.3441 26.1893Z"
            fill="black" />
    </symbol>
    <symbol viewBox="0 0 100 40" id="byb_it">
        <path d="M71.2739 29.1462V3.44827H76.4393V29.1462H71.2739Z" fill="#1D1D1B" />
        <path
            d="M11.0736 36.7796H0V11.0817H10.6283C15.7938 11.0817 18.8036 13.8969 18.8036 18.3004C18.8036 21.1509 16.8706 22.993 15.5326 23.6063C17.1297 24.3278 19.1739 25.9516 19.1739 29.3821C19.1739 34.1808 15.7938 36.7796 11.0736 36.7796ZM10.2195 15.558H5.1654V21.4772H10.2195C12.4116 21.4772 13.6382 20.286 13.6382 18.5167C13.6382 16.7493 12.4116 15.558 10.2195 15.558ZM10.5535 25.989H5.1654V32.3053H10.5535C12.8953 32.3053 14.0085 30.8624 14.0085 29.1285C14.0085 27.3965 12.8932 25.989 10.5535 25.989Z"
            fill="black" />
        <path
            d="M34.929 26.2406V36.7796H29.8V26.2406L21.8475 11.0817H27.4582L32.4009 21.4399L37.2689 11.0817H42.8795L34.929 26.2406Z"
            fill="black" />
        <path
            d="M57.5238 36.7796H46.4501V11.0817H57.0785C62.2439 11.0817 65.2537 13.8969 65.2537 18.3004C65.2537 21.1509 63.3207 22.993 61.9827 23.6063C63.5798 24.3278 65.6241 25.9516 65.6241 29.3821C65.6241 34.1808 62.2439 36.7796 57.5238 36.7796ZM56.6696 15.558H51.6155V21.4772H56.6696C58.8617 21.4772 60.0883 20.286 60.0883 18.5167C60.0883 16.7493 58.8617 15.558 56.6696 15.558ZM57.0036 25.989H51.6155V32.3053H57.0036C59.3454 32.3053 60.4586 30.8624 60.4586 29.1285C60.4586 27.3965 59.3454 25.989 57.0036 25.989Z"
            fill="black" />
        <path d="M93.0874 15.558V36.7816H87.922V15.558H81.0098V11.0817H99.9995V15.558H93.0874Z" fill="black" />
    </symbol>
    <symbol viewBox="0 0 166 33" id="binance">
        <g clip-path="url(#clip0_58_456)">
            <path
                d="M10.0931 13.8662L16.5025 7.4596L22.9144 13.8714L26.6416 10.1416L16.5025 0L6.36328 10.139L10.0931 13.8662Z"
                fill="black" />
            <path d="M0 16.5005L3.7285 12.7721L7.45699 16.5005L3.7285 20.2289L0 16.5005Z" fill="black" />
            <path
                d="M10.0944 19.134L16.5038 25.5432L22.9157 19.1313L26.6455 22.8559L26.6429 22.8585L16.5038 33.0002L6.36459 22.8638L6.35938 22.8585L10.0944 19.134Z"
                fill="black" />
            <path d="M25.543 16.5015L29.2715 12.773L33 16.5015L29.2715 20.2299L25.543 16.5015Z" fill="black" />
            <path
                d="M20.284 16.4986L16.502 12.7141L13.7053 15.5108L13.3821 15.8314L12.7201 16.4934L12.7148 16.4986L12.7201 16.5065L16.502 20.2858L20.284 16.5013L20.2866 16.4986H20.284Z"
                fill="black" />
            <path
                d="M38.8164 7.29272H46.9277C48.9399 7.29272 50.4621 7.81401 51.4943 8.85658C51.8831 9.2417 52.1897 9.70181 52.3954 10.209C52.601 10.7162 52.7015 11.2599 52.6906 11.8071V11.8566C52.6976 12.3048 52.6352 12.7515 52.5056 13.1806C52.3901 13.5501 52.2225 13.9012 52.0078 14.2232C51.8076 14.5269 51.5654 14.8007 51.2884 15.0364C51.0177 15.2694 50.7213 15.4705 50.4048 15.6359C51.3174 15.9538 52.1381 16.4908 52.7949 17.1998C53.3753 17.8601 53.6655 18.7723 53.6655 19.9365V19.986C53.682 20.7131 53.5238 21.4335 53.2041 22.0868C52.8944 22.6887 52.4404 23.2045 51.8826 23.5881C51.2521 24.0109 50.55 24.3155 49.8105 24.4873C48.9319 24.6957 48.0313 24.7963 47.1284 24.7871H38.8164V7.29272ZM46.1145 14.3666C46.8163 14.4005 47.5147 14.2495 48.1398 13.9287C48.3835 13.7863 48.5825 13.5785 48.7143 13.3288C48.846 13.0792 48.9052 12.7976 48.8852 12.516V12.4665C48.8981 12.207 48.8454 11.9485 48.732 11.7148C48.6185 11.4811 48.448 11.2798 48.2362 11.1294C47.8035 10.8218 47.1788 10.6681 46.3621 10.6681H42.5671V14.3666H46.1145ZM47.1389 21.417C47.838 21.4561 48.534 21.2962 49.1458 20.9556C49.3842 20.8025 49.5772 20.5882 49.7046 20.3352C49.832 20.0821 49.8893 19.7996 49.8704 19.5169V19.4674C49.8798 19.1987 49.8232 18.9318 49.7055 18.69C49.5878 18.4483 49.4127 18.2391 49.1954 18.0807C48.7471 17.7332 48.0225 17.5594 47.0216 17.5594H42.5671V21.417H47.1389Z"
                fill="black" />
            <path d="M58.498 7.29272H62.3478V24.7923H58.498V7.29272Z" fill="black" />
            <path
                d="M68.1738 7.29248H71.7238L79.929 18.0622V7.29248H83.7292V24.792H80.4529L71.9793 13.6678V24.792H68.1738V7.29248Z"
                fill="black" />
            <path
                d="M95.3842 7.16748H98.929L106.428 24.7922H102.409L100.808 20.8669H93.4085L91.8082 24.7922H87.8828L95.3842 7.16748ZM99.4347 17.4681L97.1045 11.7913L94.7847 17.4681H99.4347Z"
                fill="black" />
            <path
                d="M110.59 7.29272H114.14L122.34 18.0625V7.29272H126.14V24.7923H122.864L114.39 13.668V24.7923H110.59V7.29272Z"
                fill="black" />
            <path
                d="M139.997 25.0998C138.77 25.1103 137.553 24.8727 136.42 24.4013C135.354 23.9609 134.387 23.3116 133.575 22.4915C132.763 21.6715 132.124 20.6972 131.695 19.6263C131.242 18.5061 131.013 17.3081 131.02 16.0998V16.0503C131 13.6686 131.916 11.3743 133.572 9.6619C134.386 8.82544 135.361 8.16228 136.439 7.7123C137.611 7.22688 138.869 6.98479 140.137 7.00074C140.887 6.99514 141.636 7.06236 142.374 7.20143C143.004 7.32072 143.621 7.50502 144.214 7.75139C144.752 7.9778 145.263 8.26275 145.739 8.60109C146.203 8.93107 146.639 9.29897 147.042 9.701L144.594 12.5264C143.969 11.9494 143.267 11.4609 142.509 11.0746C141.764 10.7185 140.947 10.54 140.122 10.5533C139.435 10.546 138.754 10.6849 138.125 10.9608C137.496 11.2367 136.933 11.6433 136.473 12.1537C136.017 12.6627 135.659 13.2522 135.42 13.8921C135.168 14.5684 135.042 15.2846 135.047 16.006V16.0555C135.044 16.7758 135.171 17.4907 135.42 18.1667C135.656 18.8089 136.01 19.4018 136.462 19.9156C136.918 20.4322 137.48 20.8448 138.11 21.1254C138.739 21.406 139.422 21.5481 140.111 21.542C140.989 21.5697 141.86 21.3808 142.647 20.9921C143.397 20.5835 144.09 20.0788 144.709 19.4907L147.159 21.9669C146.727 22.4364 146.259 22.8721 145.759 23.2701C145.269 23.6578 144.737 23.9892 144.172 24.2579C143.571 24.541 142.937 24.7502 142.285 24.8808C141.532 25.0319 140.765 25.1052 139.997 25.0998Z"
                fill="black" />
            <path
                d="M151.703 7.29248H164.874V10.7173H155.49V14.2673H163.753V17.6921H155.503V21.3672H165.004V24.792H151.711L151.703 7.29248Z"
                fill="black" />
        </g>
        <defs>
            <clipPath id="clip0_58_456">
                <rect width="166" height="33" fill="white" />
            </clipPath>
        </defs>
    </symbol>
    <symbol viewBox="0 0 106 27" id="bybit">
        <g clip-path="url(#clip0_58_471)">
            <path d="M75.0898 26.2196V0.776611H80.4853V26.2196H75.0898Z" fill="black" />
            <path
                d="M12.2258 26.2196H0.664062V0.776611H11.7607C17.1562 0.776611 20.2953 3.56506 20.2953 7.92532C20.2962 9.01526 19.9773 10.0839 19.3743 11.0119C18.7713 11.9398 17.9079 12.6904 16.8806 13.1797C18.5471 13.8941 20.6829 15.5027 20.6829 18.8954C20.6872 23.6476 17.1562 26.2196 12.2258 26.2196ZM11.3344 5.21037H6.05953V11.0689H11.3387C13.6296 11.0689 14.9084 9.88907 14.9084 8.13762C14.9084 6.38616 13.6253 5.21037 11.3344 5.21037ZM11.6832 15.5394H6.05953V21.7941H11.6875C14.1334 21.7941 15.296 20.3651 15.296 18.6504C15.296 16.9357 14.1204 15.5354 11.6832 15.5354V15.5394Z"
                fill="black" />
            <path
                d="M37.1357 15.7844V26.2196H31.7747V15.7844L23.4727 0.776611H29.3332L34.5004 11.0322L39.5816 0.776611H45.4421L37.1357 15.7844Z"
                fill="black" />
            <path
                d="M60.734 26.2196H49.168V0.776611H60.2646C65.6601 0.776611 68.7992 3.56506 68.7992 7.92532C68.8001 9.01526 68.4812 10.0839 67.8782 11.0119C67.2752 11.9398 66.4117 12.6904 65.3845 13.1797C67.051 13.8941 69.1868 15.5027 69.1868 18.8954C69.1911 23.6476 65.6601 26.2196 60.734 26.2196ZM59.8426 5.21037H54.5634V11.0689H59.8426C62.1335 11.0689 63.4124 9.88907 63.4124 8.13762C63.4124 6.38616 62.1292 5.21037 59.8383 5.21037H59.8426ZM60.1914 15.5394H54.5634V21.7941H60.1957C62.6416 21.7941 63.8042 20.3651 63.8042 18.6504C63.8042 16.9357 62.633 15.5354 60.1957 15.5354L60.1914 15.5394Z"
                fill="black" />
            <path d="M97.8683 5.21037V26.2237H92.49V5.21037H85.2559V0.776611H105.085V5.21037H97.8683Z" fill="black" />
        </g>
        <defs>
            <clipPath id="clip0_58_471">
                <rect width="106" height="27" fill="white" />
            </clipPath>
        </defs>
    </symbol>
    <symbol viewBox="0 0 120 37" id="bitget">
        <g clip-path="url(#clip0_58_477)">
            <path
                d="M47.0353 17.5619C47.9383 17.0493 48.6606 16.4109 49.1872 15.6583C49.7856 14.8074 50.1022 13.7904 50.0924 12.7503C50.0924 10.7441 49.3421 9.17709 47.8637 8.09476C46.4027 7.02292 44.393 6.48117 41.8882 6.48117H32.8311V29.7251H42.2505C44.8882 29.7251 47.0004 29.1122 48.5278 27.9018C50.0668 26.6808 50.8486 24.9717 50.8486 22.8198C50.8486 21.5091 50.4804 20.3825 49.7569 19.4703C49.108 18.6548 48.1934 18.014 47.0353 17.5619ZM37.7324 10.6707H41.4944C42.6746 10.6707 43.5647 10.9002 44.1437 11.3499C44.7146 11.7926 44.9942 12.3775 44.9942 13.1324C44.9942 13.8897 44.7146 14.5025 44.1437 14.9487C43.5647 15.3985 42.6746 15.6268 41.4944 15.6268H37.7324V10.6707ZM44.8148 24.748C44.1623 25.2711 43.1662 25.5355 41.8555 25.5355H37.7324V19.8478H41.8567C43.1662 19.8478 44.1635 20.1041 44.8183 20.6051C45.4672 21.106 45.7818 21.7666 45.7818 22.6276C45.7818 23.534 45.466 24.2272 44.8148 24.748ZM57.4719 12.3437H52.5367V29.7239H57.4707L57.4719 12.3437ZM106.207 14.9592C105.417 14.0226 104.421 13.281 103.298 12.7922C102.149 12.2831 100.857 12.0245 99.4602 12.0245C97.7476 12.0245 96.2027 12.4136 94.8664 13.1802C93.545 13.9323 92.4535 15.0303 91.7091 16.3561C90.9507 17.6959 90.5674 19.2478 90.5674 20.9709C90.5674 22.6952 90.9402 24.3495 91.6742 25.7091C92.3914 27.0525 93.4845 28.1577 94.8198 28.8897C96.1678 29.6342 97.7511 30.0117 99.5266 30.0117C101.705 30.0117 103.554 29.4641 105.026 28.3818C106.441 27.3414 107.414 25.8746 107.945 24.0361H102.977C102.717 24.6618 102.348 25.1942 101.821 25.5693C101.197 26.012 100.392 26.2357 99.4276 26.2357C98.5911 26.2357 97.8734 26.033 97.2955 25.6322C96.7165 25.2303 96.2738 24.6385 95.9825 23.8684C95.7965 23.3624 95.6717 22.8359 95.6109 22.3002H108.031L108.056 22.1464C108.277 20.7449 108.221 19.4167 107.888 18.1992C107.57 17.0097 106.996 15.9037 106.207 14.9581V14.9592ZM95.6901 19.0835C95.7655 18.7234 95.8687 18.3697 95.9988 18.0256C96.3018 17.2451 96.7386 16.6462 97.299 16.2454C97.8571 15.8435 98.5515 15.6419 99.3623 15.6419C100.379 15.6419 101.215 15.9717 101.844 16.6206C102.442 17.2381 102.779 18.0816 102.852 19.0823L95.6901 19.0835ZM57.5744 6.48117H52.4342V10.6707H57.5744V6.48117ZM84.5942 14.3161C84.0379 13.637 83.3427 13.0848 82.5553 12.6967C81.635 12.2505 80.5573 12.0245 79.3526 12.0245C77.8788 12.0245 76.5565 12.3891 75.4264 13.1045C74.2963 13.821 73.3992 14.8322 72.7643 16.1091C72.1293 17.3837 71.8078 18.8796 71.8078 20.5573C71.8078 22.235 72.1456 23.6435 72.8144 24.9262C73.4843 26.2136 74.4128 27.2388 75.5744 27.9752C76.7371 28.7126 78.0641 29.0878 79.5181 29.0878C80.6155 29.0878 81.6186 28.8501 82.4971 28.3806C83.1742 28.0239 83.7664 27.5251 84.233 26.9185V28.8105C84.233 29.9837 83.9254 30.8843 83.3196 31.4843C82.7115 32.0843 81.7864 32.3872 80.5701 32.3872C79.5216 32.3872 78.6979 32.1495 78.1212 31.68C77.6493 31.2955 77.2369 30.7922 77.1414 29.7251H72.3833C72.4276 31.2186 72.8656 32.2241 73.4854 33.106C74.1786 34.0928 75.155 34.8653 76.3899 35.3988C77.6109 35.9254 79.0299 36.1934 80.6027 36.1934C83.245 36.1934 85.348 35.5293 86.8532 34.221C88.3678 32.9056 89.1344 31.0637 89.1344 28.7476V12.3437H84.5953L84.5942 14.3161ZM83.7262 22.8664C83.4402 23.4823 82.9843 24.0037 82.412 24.3693C81.8528 24.7188 81.1771 24.8983 80.4058 24.8983C79.2874 24.8983 78.4194 24.5173 77.7495 23.7355C77.0808 22.9561 76.7418 21.8866 76.7418 20.5561C76.7418 19.2256 77.0796 18.1561 77.7484 17.3767C78.4113 16.6054 79.3049 16.214 80.4047 16.214C81.5056 16.214 82.4773 16.6101 83.1612 17.3942C83.8509 18.1852 84.2004 19.2594 84.2004 20.5864C84.2004 21.4474 84.0408 22.2128 83.7262 22.8652V22.8664ZM120.002 16.5018V12.3449H116.441V6.48117H111.539V12.3449H108.497V16.5018H111.539V23.3056C111.539 27.0886 112.285 29.8684 116.929 29.7821L119.845 29.7239V25.8291H118.398C116.334 25.8291 116.449 24.6256 116.449 22.3899L116.441 16.5029L120.002 16.5018ZM70.6089 16.5018V12.3449H67.0474V6.48117H62.146V12.3449H59.1029V16.5018H62.1437V23.3056C62.1437 27.0886 62.8893 29.8684 67.5344 29.7821L70.4493 29.7239V25.8291H69.0058C66.9414 25.8291 67.0555 24.6256 67.0555 22.3899L67.0474 16.5029L70.6089 16.5018ZM12.3029 10.6707H19.7045L27.2761 18.1934C27.7689 18.6827 27.7713 19.4796 27.2808 19.9713L17.5701 29.7309H9.94719L12.2528 27.4893L20.7157 19.08L12.36 10.6695"
                fill="black" />
            <path
                d="M15.3439 19.0602H7.9447L0.371888 11.5375C0.254701 11.4211 0.161609 11.2828 0.0979399 11.1304C0.0342714 10.9781 0.00127641 10.8146 0.000843548 10.6495C0.000410691 10.4844 0.0325484 10.3208 0.0954174 10.1681C0.158286 10.0154 0.250652 9.87657 0.367228 9.75961L10.0779 0H17.702L15.3975 2.24155L6.93228 10.6509L15.2892 19.0602"
                fill="black" />
        </g>
        <defs>
            <clipPath id="clip0_58_477">
                <rect width="120" height="36.1165" fill="white" />
            </clipPath>
        </defs>
    </symbol>
    <symbol viewBox="0 0 66 66" id="user">
        <circle cx="33" cy="33" r="30.5" fill="#1C5E20" stroke="#E8F3E8" stroke-width="5" />
        <g clip-path="url(#clip0_15_20)">
            <path
                d="M37.3999 39.3V41.5H22V39.3C22 39.3 22 34.9 29.7 34.9C37.3999 34.9 37.3999 39.3 37.3999 39.3ZM33.55 28.85C33.55 28.0886 33.3242 27.3442 32.9011 26.7111C32.4781 26.078 31.8768 25.5845 31.1733 25.2931C30.4698 25.0017 29.6957 24.9255 28.9489 25.074C28.2021 25.2226 27.5161 25.5893 26.9776 26.1277C26.4392 26.6661 26.0725 27.3521 25.924 28.0989C25.7754 28.8458 25.8517 29.6199 26.143 30.3234C26.4344 31.0269 26.9279 31.6282 27.561 32.0512C28.1942 32.4742 28.9385 32.7 29.7 32.7C30.7211 32.7 31.7003 32.2944 32.4223 31.5724C33.1443 30.8504 33.55 29.8711 33.55 28.85ZM37.3339 34.9C38.0102 35.4233 38.5635 36.0885 38.955 36.8487C39.3465 37.6089 39.5666 38.4456 39.5999 39.3V41.5H43.9999V39.3C43.9999 39.3 43.9999 35.307 37.3339 34.9ZM36.3 25.0001C35.5428 24.9958 34.8023 25.2222 34.177 25.6491C34.8451 26.5827 35.2044 27.702 35.2044 28.85C35.2044 29.9981 34.8451 31.1174 34.177 32.051C34.8023 32.4779 35.5428 32.7042 36.3 32.7C37.321 32.7 38.3003 32.2944 39.0223 31.5724C39.7443 30.8504 40.1499 29.8711 40.1499 28.85C40.1499 27.829 39.7443 26.8497 39.0223 26.1277C38.3003 25.4057 37.321 25.0001 36.3 25.0001Z"
                fill="white" />
        </g>
        <defs>
            <clipPath id="clip0_15_20">
                <rect width="22" height="16.8667" fill="white" transform="translate(22 25)" />
            </clipPath>
        </defs>
    </symbol>
    <symbol viewBox="0 0 66 66" id="user-seting">
        <circle cx="33" cy="33" r="30.5" fill="#1C5E20" stroke="#E8F3E8" stroke-width="5" />
        <g clip-path="url(#clip0_15_34)">
            <path
                d="M31.6284 33.3019C31.4016 33.2916 31.1747 33.2812 30.9375 33.2812C28.4419 33.2812 26.1113 33.9722 24.1209 35.1581C23.2134 35.6944 22.6875 36.705 22.6875 37.7672V40.5H32.2369C31.5085 39.4609 31.0685 38.2474 30.9616 36.983C30.8547 35.7186 31.0848 34.4484 31.6284 33.3019Z"
                fill="#E8F3E8" />
            <path
                d="M30.9375 32.25C33.2157 32.25 35.0625 30.4032 35.0625 28.125C35.0625 25.8468 33.2157 24 30.9375 24C28.6593 24 26.8125 25.8468 26.8125 28.125C26.8125 30.4032 28.6593 32.25 30.9375 32.25Z"
                fill="#E8F3E8" />
            <path
                d="M42.0234 36.375C42.0234 36.1481 41.9925 35.9419 41.9615 35.7253L43.1372 34.6837L42.1059 32.8997L40.6106 33.405C40.2806 33.1266 39.9094 32.91 39.4969 32.7553L39.1875 31.2188H37.125L36.8156 32.7553C36.4031 32.91 36.0319 33.1266 35.7019 33.405L34.2065 32.8997L33.1753 34.6837L34.3509 35.7253C34.32 35.9419 34.289 36.1481 34.289 36.375C34.289 36.6019 34.32 36.8081 34.3509 37.0247L33.1753 38.0662L34.2065 39.8503L35.7019 39.345C36.0319 39.6234 36.4031 39.84 36.8156 39.9947L37.125 41.5312H39.1875L39.4969 39.9947C39.9094 39.84 40.2806 39.6234 40.6106 39.345L42.1059 39.8503L43.1372 38.0662L41.9615 37.0247C41.9925 36.8081 42.0234 36.6019 42.0234 36.375ZM38.1562 38.4375C37.0219 38.4375 36.0937 37.5094 36.0937 36.375C36.0937 35.2406 37.0219 34.3125 38.1562 34.3125C39.2906 34.3125 40.2187 35.2406 40.2187 36.375C40.2187 37.5094 39.2906 38.4375 38.1562 38.4375Z"
                fill="#E8F3E8" />
        </g>
        <defs>
            <clipPath id="clip0_15_34">
                <rect width="22" height="17.875" fill="white" transform="translate(22 24)" />
            </clipPath>
        </defs>
    </symbol>
    <symbol viewBox="0 0 66 66" id="detail">
        <circle cx="33" cy="33" r="30.5" fill="#1C5E20" stroke="#E8F3E8" stroke-width="5" />
        <path
            d="M34.8333 27.5H42.1666V42.1667H34.8333V27.5ZM23.8333 25.6667H42.1666V23.8334H23.8333V25.6667ZM23.8333 29.3334H33V27.5H23.8333V29.3334ZM30.25 42.1667H33V31.1667H30.25V42.1667ZM23.8333 42.1667H28.4166V31.1667H23.8333V42.1667Z"
            fill="white" />
    </symbol>
    <symbol viewBox="0 0 66 66" id="charts">
        <circle cx="33" cy="33" r="30.5" fill="#1C5E20" stroke="#E8F3E8" stroke-width="5" />
        <g clip-path="url(#clip0_15_26)">
            <path
                d="M24.75 41.25H44V44H22V22H24.75V41.25ZM28.1875 39.875C27.9087 39.8756 27.6327 39.8196 27.3762 39.7105C27.1196 39.6014 26.8878 39.4414 26.6949 39.2402C26.5019 39.039 26.3517 38.8007 26.2534 38.5398C26.1551 38.279 26.1107 38.0009 26.1229 37.7223C26.135 37.4438 26.2036 37.1707 26.3243 36.9194C26.445 36.6681 26.6154 36.4439 26.8252 36.2603C27.0351 36.0767 27.2799 35.9376 27.545 35.8513C27.8101 35.765 28.09 35.7333 28.3676 35.7582L30.5841 32.0636C30.3815 31.7524 30.2666 31.3922 30.2517 31.0211C30.2367 30.6499 30.3223 30.2817 30.4993 29.9552C30.6764 29.6286 30.9383 29.356 31.2574 29.166C31.5766 28.976 31.9411 28.8757 32.3125 28.8757C32.6839 28.8757 33.0484 28.976 33.3676 29.166C33.6867 29.356 33.9486 29.6286 34.1257 29.9552C34.3027 30.2817 34.3883 30.6499 34.3733 31.0211C34.3584 31.3922 34.2435 31.7524 34.0409 32.0636L36.2574 35.7582C36.3625 35.7488 36.4683 35.7479 36.5736 35.7555L40.2339 29.3508C39.9708 28.9655 39.8462 28.5024 39.8803 28.0371C39.9144 27.5718 40.1052 27.1319 40.4216 26.7891C40.738 26.4462 41.1613 26.2208 41.6223 26.1495C42.0834 26.0783 42.5549 26.1655 42.9601 26.3968C43.3652 26.6282 43.6799 26.99 43.8528 27.4233C44.0258 27.8566 44.0467 28.3357 43.9122 28.7824C43.7778 29.2291 43.4958 29.617 43.1124 29.8828C42.729 30.1486 42.2669 30.2766 41.8014 30.2459L38.1411 36.6506C38.3514 36.9591 38.4741 37.3188 38.496 37.6915C38.5179 38.0641 38.4383 38.4358 38.2655 38.7667C38.0928 39.0977 37.8335 39.3756 37.5153 39.5707C37.1971 39.7659 36.8318 39.871 36.4585 39.8749C36.0852 39.8788 35.7179 39.7813 35.3957 39.5928C35.0734 39.4043 34.8084 39.1319 34.6288 38.8046C34.4493 38.4773 34.3619 38.1074 34.376 37.7344C34.3902 37.3613 34.5053 36.9991 34.7091 36.6864L32.4926 32.9917C32.3728 33.0029 32.2522 33.0029 32.1324 32.9917L29.9159 36.6864C30.1187 36.9976 30.2337 37.3579 30.2488 37.7291C30.2638 38.1003 30.1782 38.4687 30.0012 38.7954C29.8241 39.122 29.5622 39.3947 29.2429 39.5848C28.9237 39.7748 28.559 39.8751 28.1875 39.875Z"
                fill="white" />
        </g>
        <defs>
            <clipPath id="clip0_15_26">
                <rect width="22" height="22" fill="white" transform="translate(22 22)" />
            </clipPath>
        </defs>
    </symbol>
    <symbol viewBox="0 0 66 66" id="seting">
        <circle cx="33" cy="33" r="30.5" fill="#1C5E20" stroke="#E8F3E8" stroke-width="5" />
        <g clip-path="url(#clip0_15_42)">
            <path
                d="M29.8929 24.75C29.5803 24.75 29.2805 24.8742 29.0595 25.0952C28.8385 25.3163 28.7143 25.616 28.7143 25.9286C28.7143 26.2412 28.8385 26.541 29.0595 26.762C29.2805 26.983 29.5803 27.1072 29.8929 27.1072C30.2054 27.1072 30.5052 26.983 30.7262 26.762C30.9473 26.541 31.0714 26.2412 31.0714 25.9286C31.0714 25.616 30.9473 25.3163 30.7262 25.0952C30.5052 24.8742 30.2054 24.75 29.8929 24.75ZM26.5575 24.75C26.801 24.06 27.2525 23.4624 27.8499 23.0397C28.4473 22.617 29.1611 22.39 29.8929 22.39C30.6246 22.39 31.3384 22.617 31.9358 23.0397C32.5332 23.4624 32.9847 24.06 33.2282 24.75H41.6786C41.9911 24.75 42.2909 24.8742 42.5119 25.0952C42.733 25.3163 42.8571 25.616 42.8571 25.9286C42.8571 26.2412 42.733 26.541 42.5119 26.762C42.2909 26.983 41.9911 27.1072 41.6786 27.1072H33.2282C32.9847 27.7973 32.5332 28.3949 31.9358 28.8175C31.3384 29.2402 30.6246 29.4672 29.8929 29.4672C29.1611 29.4672 28.4473 29.2402 27.8499 28.8175C27.2525 28.3949 26.801 27.7973 26.5575 27.1072H25.1786C24.866 27.1072 24.5662 26.983 24.3452 26.762C24.1242 26.541 24 26.2412 24 25.9286C24 25.616 24.1242 25.3163 24.3452 25.0952C24.5662 24.8742 24.866 24.75 25.1786 24.75H26.5575ZM36.9643 31.8215C36.6517 31.8215 36.3519 31.9456 36.1309 32.1667C35.9099 32.3877 35.7857 32.6875 35.7857 33C35.7857 33.3126 35.9099 33.6124 36.1309 33.8334C36.3519 34.0544 36.6517 34.1786 36.9643 34.1786C37.2769 34.1786 37.5766 34.0544 37.7977 33.8334C38.0187 33.6124 38.1429 33.3126 38.1429 33C38.1429 32.6875 38.0187 32.3877 37.7977 32.1667C37.5766 31.9456 37.2769 31.8215 36.9643 31.8215ZM33.6289 31.8215C33.8724 31.1314 34.324 30.5338 34.9213 30.1111C35.5187 29.6884 36.2325 29.4614 36.9643 29.4614C37.6961 29.4614 38.4099 29.6884 39.0072 30.1111C39.6046 30.5338 40.0561 31.1314 40.2996 31.8215H41.6786C41.9911 31.8215 42.2909 31.9456 42.5119 32.1667C42.733 32.3877 42.8571 32.6875 42.8571 33C42.8571 33.3126 42.733 33.6124 42.5119 33.8334C42.2909 34.0544 41.9911 34.1786 41.6786 34.1786H40.2996C40.0561 34.8687 39.6046 35.4663 39.0072 35.889C38.4099 36.3117 37.6961 36.5386 36.9643 36.5386C36.2325 36.5386 35.5187 36.3117 34.9213 35.889C34.324 35.4663 33.8724 34.8687 33.6289 34.1786H25.1786C24.866 34.1786 24.5662 34.0544 24.3452 33.8334C24.1242 33.6124 24 33.3126 24 33C24 32.6875 24.1242 32.3877 24.3452 32.1667C24.5662 31.9456 24.866 31.8215 25.1786 31.8215H33.6289ZM29.8929 38.8929C29.5803 38.8929 29.2805 39.0171 29.0595 39.2381C28.8385 39.4591 28.7143 39.7589 28.7143 40.0715C28.7143 40.3841 28.8385 40.6838 29.0595 40.9049C29.2805 41.1259 29.5803 41.25 29.8929 41.25C30.2054 41.25 30.5052 41.1259 30.7262 40.9049C30.9473 40.6838 31.0714 40.3841 31.0714 40.0715C31.0714 39.7589 30.9473 39.4591 30.7262 39.2381C30.5052 39.0171 30.2054 38.8929 29.8929 38.8929ZM26.5575 38.8929C26.801 38.2028 27.2525 37.6052 27.8499 37.1825C28.4473 36.7599 29.1611 36.5329 29.8929 36.5329C30.6246 36.5329 31.3384 36.7599 31.9358 37.1825C32.5332 37.6052 32.9847 38.2028 33.2282 38.8929H41.6786C41.9911 38.8929 42.2909 39.0171 42.5119 39.2381C42.733 39.4591 42.8571 39.7589 42.8571 40.0715C42.8571 40.3841 42.733 40.6838 42.5119 40.9049C42.2909 41.1259 41.9911 41.25 41.6786 41.25H33.2282C32.9847 41.9401 32.5332 42.5377 31.9358 42.9604C31.3384 43.3831 30.6246 43.6101 29.8929 43.6101C29.1611 43.6101 28.4473 43.3831 27.8499 42.9604C27.2525 42.5377 26.801 41.9401 26.5575 41.25H25.1786C24.866 41.25 24.5662 41.1259 24.3452 40.9049C24.1242 40.6838 24 40.3841 24 40.0715C24 39.7589 24.1242 39.4591 24.3452 39.2381C24.5662 39.0171 24.866 38.8929 25.1786 38.8929H26.5575Z"
                fill="white" />
        </g>
        <defs>
            <clipPath id="clip0_15_42">
                <rect width="18.8571" height="22" fill="white" transform="translate(24 22)" />
            </clipPath>
        </defs>
    </symbol>
    <symbol viewBox="0 0 66 66" id="users">
        <circle cx="33" cy="33" r="30.5" fill="#1C5E20" stroke="#E8F3E8" stroke-width="5" />
        <path
            d="M28.6786 29.4643C29.46 29.4643 30.2095 29.1538 30.762 28.6013C31.3146 28.0487 31.625 27.2993 31.625 26.5178C31.625 25.7364 31.3146 24.987 30.762 24.4344C30.2095 23.8818 29.46 23.5714 28.6786 23.5714C27.8971 23.5714 27.1477 23.8818 26.5951 24.4344C26.0426 24.987 25.7321 25.7364 25.7321 26.5178C25.7321 27.2993 26.0426 28.0487 26.5951 28.6013C27.1477 29.1538 27.8971 29.4643 28.6786 29.4643ZM23.5714 32.2001C23.5714 31.3398 24.2684 30.6428 25.1287 30.6428H29.5287C29.1844 31.5116 29.1785 32.478 29.5122 33.3509C29.846 34.2238 30.495 34.9397 31.3311 35.3571H29.4509C28.9866 35.3572 28.5327 35.4951 28.1469 35.7535C27.7611 36.0119 27.4608 36.379 27.2839 36.8083C25.7086 36.5168 24.7641 35.7303 24.2244 34.8519C23.5714 33.7936 23.5714 32.6998 23.5714 32.5113V32.2001ZM34.6681 35.3571H36.5499C37.5281 35.3571 38.3664 35.9566 38.7169 36.8083C40.2922 36.5168 41.2366 35.7303 41.7764 34.8519C42.4286 33.7928 42.4286 32.6991 42.4286 32.5105V32.2001C42.4286 31.7871 42.2645 31.391 41.9725 31.099C41.6804 30.8069 41.2843 30.6428 40.8713 30.6428H36.4713C36.8156 31.5116 36.8215 32.478 36.4878 33.3509C36.154 34.2238 35.505 34.9397 34.6689 35.3571H34.6681ZM40.2679 26.5178C40.2679 27.2993 39.9574 28.0487 39.4049 28.6013C38.8523 29.1538 38.1029 29.4643 37.3214 29.4643C36.54 29.4643 35.7906 29.1538 35.238 28.6013C34.6854 28.0487 34.375 27.2993 34.375 26.5178C34.375 25.7364 34.6854 24.987 35.238 24.4344C35.7906 23.8818 36.54 23.5714 37.3214 23.5714C38.1029 23.5714 38.8523 23.8818 39.4049 24.4344C39.9574 24.987 40.2679 25.7364 40.2679 26.5178ZM27.8929 37.7001C27.8929 36.8398 28.5898 36.1428 29.4501 36.1428H36.5499C37.4102 36.1428 38.1071 36.8398 38.1071 37.7001V38.0105C38.1071 38.1991 38.1071 39.2928 37.455 40.3519C36.7714 41.4645 35.4404 42.4286 33 42.4286C30.5596 42.4286 29.2286 41.4637 28.545 40.3527C27.8929 39.2928 27.8929 38.1998 27.8929 38.0105V37.7001ZM33 34.9643C33.7814 34.9643 34.5309 34.6538 35.0834 34.1013C35.636 33.5487 35.9464 32.7993 35.9464 32.0178C35.9464 31.2364 35.636 30.487 35.0834 29.9344C34.5309 29.3818 33.7814 29.0714 33 29.0714C32.2186 29.0714 31.4691 29.3818 30.9166 29.9344C30.364 30.487 30.0536 31.2364 30.0536 32.0178C30.0536 32.7993 30.364 33.5487 30.9166 34.1013C31.4691 34.6538 32.2186 34.9643 33 34.9643Z"
            fill="white" />
    </symbol>
    <symbol viewBox="0 0 24 24" id="icon-active">
        <g clip-path="url(#clip0_34_403)">
            <path
                d="M21.6429 0.428711H2.35716C1.84567 0.428711 1.35513 0.631899 0.993454 0.993576C0.631777 1.35525 0.428589 1.84579 0.428589 2.35728V21.643C0.428589 22.1545 0.631777 22.645 0.993454 23.0067C1.35513 23.3684 1.84567 23.5716 2.35716 23.5716H21.6429C22.1544 23.5716 22.6449 23.3684 23.0066 23.0067C23.3683 22.645 23.5714 22.1545 23.5714 21.643V2.35728C23.5714 1.84579 23.3683 1.35525 23.0066 0.993576C22.6449 0.631899 22.1544 0.428711 21.6429 0.428711ZM16.8214 12.9644H12.9643V16.8216C12.9643 17.0773 12.8627 17.3226 12.6819 17.5034C12.501 17.6843 12.2558 17.7859 12 17.7859C11.7443 17.7859 11.499 17.6843 11.3182 17.5034C11.1373 17.3226 11.0357 17.0773 11.0357 16.8216V12.9644H7.17859C6.92284 12.9644 6.67757 12.8628 6.49674 12.682C6.3159 12.5012 6.2143 12.2559 6.2143 12.0001C6.2143 11.7444 6.3159 11.4991 6.49674 11.3183C6.67757 11.1374 6.92284 11.0359 7.17859 11.0359H11.0357V7.17871C11.0357 6.92297 11.1373 6.6777 11.3182 6.49686C11.499 6.31602 11.7443 6.21443 12 6.21443C12.2558 6.21443 12.501 6.31602 12.6819 6.49686C12.8627 6.6777 12.9643 6.92297 12.9643 7.17871V11.0359H16.8214C17.0772 11.0359 17.3225 11.1374 17.5033 11.3183C17.6841 11.4991 17.7857 11.7444 17.7857 12.0001C17.7857 12.2559 17.6841 12.5012 17.5033 12.682C17.3225 12.8628 17.0772 12.9644 16.8214 12.9644Z"
                fill="#1C5E20" />
        </g>
        <defs>
            <clipPath id="clip0_34_403">
                <rect width="24" height="24" fill="white" />
            </clipPath>
        </defs>
    </symbol>
    <symbol viewBox="0 0 24 24" id="icon-close">
        <g clip-path="url(#clip0_34_416)">
            <path
                d="M20.4 0C21.3548 0 22.2705 0.379285 22.9456 1.05442C23.6207 1.72955 24 2.64522 24 3.6V20.4C24 21.3548 23.6207 22.2705 22.9456 22.9456C22.2705 23.6207 21.3548 24 20.4 24H3.6C2.64522 24 1.72955 23.6207 1.05442 22.9456C0.379285 22.2705 0 21.3548 0 20.4V3.6C0 2.64522 0.379285 1.72955 1.05442 1.05442C1.72955 0.379285 2.64522 0 3.6 0H20.4ZM15.6 10.8H8.4L8.2596 10.8084C7.95589 10.8445 7.67743 10.9953 7.48112 11.2298C7.28481 11.4643 7.18547 11.765 7.20339 12.0703C7.22132 12.3757 7.35515 12.6626 7.57756 12.8726C7.79996 13.0825 8.09414 13.1997 8.4 13.2H15.6L15.7404 13.1916C16.0441 13.1555 16.3226 13.0047 16.5189 12.7702C16.7152 12.5357 16.8145 12.235 16.7966 11.9297C16.7787 11.6243 16.6448 11.3374 16.4224 11.1274C16.2 10.9175 15.9059 10.8003 15.6 10.8Z"
                fill="#1C5E20" />
        </g>
        <defs>
            <clipPath id="clip0_34_416">
                <rect width="24" height="24" fill="white" />
            </clipPath>
        </defs>
    </symbol>
    <symbol viewBox="0 0 43 32" id="icon-bxs">
        <path
            d="M4.71533 4.584C7.52133 1.542 11.7673 0 17.3333 0H19.3333V5.638L17.7253 5.96C14.9853 6.508 13.0793 7.586 12.0593 9.168C11.5271 10.0203 11.2253 10.9961 11.1833 12H17.3333C17.8638 12 18.3725 12.2107 18.7475 12.5858C19.1226 12.9609 19.3333 13.4696 19.3333 14V28C19.3333 30.206 17.5393 32 15.3333 32H3.33333C2.8029 32 2.29419 31.7893 1.91912 31.4142C1.54405 31.0391 1.33333 30.5304 1.33333 30V20L1.33933 14.162C1.32133 13.94 0.941333 8.68 4.71533 4.584ZM37.3333 32H25.3333C24.8029 32 24.2942 31.7893 23.9191 31.4142C23.544 31.0391 23.3333 30.5304 23.3333 30V20L23.3393 14.162C23.3213 13.94 22.9413 8.68 26.7153 4.584C29.5213 1.542 33.7673 0 39.3333 0H41.3333V5.638L39.7253 5.96C36.9853 6.508 35.0793 7.586 34.0593 9.168C33.5271 10.0203 33.2253 10.9961 33.1833 12H39.3333C39.8638 12 40.3725 12.2107 40.7476 12.5858C41.1226 12.9609 41.3333 13.4696 41.3333 14V28C41.3333 30.206 39.5393 32 37.3333 32Z"
            fill="#1C5E20" />
    </symbol>
    <symbol viewBox="0 0 47 50" id="icon-next">
        <rect width="47" height="50" rx="8" fill="#1C5E20" />
        <g clip-path="url(#clip0_36_654)">
            <path d="M21.5 28.75L25.25 25L21.5 21.25" stroke="white" stroke-width="1.875" stroke-linecap="round"
                stroke-linejoin="round" />
        </g>
        <defs>
            <clipPath id="clip0_36_654">
                <rect width="10" height="7" fill="white" transform="translate(20 30) rotate(-90)" />
            </clipPath>
        </defs>
    </symbol>
    <symbol viewBox="0 0 47 50" id="icon-prev">
        <rect width="47" height="50" rx="8" transform="matrix(-1 0 0 1 47 0)" fill="#1C5E20" />
        <g clip-path="url(#clip0_36_650)">
            <path d="M25.5 28.75L21.75 25L25.5 21.25" stroke="white" stroke-width="1.875" stroke-linecap="round"
                stroke-linejoin="round" />
        </g>
        <defs>
            <clipPath id="clip0_36_650">
                <rect width="10" height="7" fill="white" transform="matrix(4.37114e-08 -1 -1 -4.37114e-08 27 30)" />
            </clipPath>
        </defs>
    </symbol>
</svg>