<svg width="200" height="77" viewBox="0 0 200 77" fill="none" xmlns="http://www.w3.org/2000/svg">
<g clip-path="url(#clip0_64_587)">
<path d="M46.1401 18.8186L69.065 41.7435L34.6025 76.206L0.139954 41.7435L19.31 22.5734L27.0116 30.2751L50.1232 7.16421L47.7591 4.80003L57.1972 2.76678L55.164 12.2049L52.8005 9.84149L27.0116 35.6296L19.31 27.9272L5.49377 41.7435L34.6025 70.8522L63.7112 41.7435L43.4628 21.4951L46.1401 18.8186Z" fill="url(#paint0_linear_64_587)"/>
<path d="M31.3339 0.105896H37.8717V16.2387C37.8717 16.2387 31.8887 22.2217 31.3339 22.7765V0.105896ZM37.8717 27.9474V64.4059L34.6032 67.6745L31.3347 64.4059V34.4844L37.8724 27.9466L37.8717 27.9474ZM45.94 5.69323H39.4022V14.7082L45.94 8.17045V5.69323ZM39.4022 26.4161V62.8747L45.94 56.3369V27.1486L42.3048 23.5135L39.4029 26.4154L39.4022 26.4161ZM47.4705 28.6806V54.8072L54.0082 48.2694V35.2184L47.4705 28.6806ZM23.2649 5.69323H29.8027V24.3077L27.0116 27.0988L23.2649 23.3521V5.69397V5.69323ZM29.8027 36.0156V62.8747L23.2649 56.3369V35.0592L27.0116 38.806L29.8027 36.0149V36.0156ZM21.7344 33.5287V54.8064L15.1966 48.2686V35.2177L19.31 31.1043L21.7344 33.5287ZM13.6661 36.7489V46.7381L8.67151 41.7435L13.6661 36.7489ZM55.5402 36.7489V46.7381L60.5348 41.7435L55.5402 36.7489Z" fill="url(#paint1_linear_64_587)"/>
<path d="M79.1243 34.6347V45.8969H81.9843V34.6347H85.419V32.144H75.6339V34.6347H79.1243ZM89.021 32.144V45.8969H91.8809V40.912H93.9118L96.7021 45.8969H99.9139L96.7752 40.4138C97.4998 40.0817 98.0781 39.5859 98.51 38.9264C98.9397 38.2691 99.1545 37.4726 99.1545 36.5367C99.1545 35.5776 98.9455 34.7717 98.5275 34.1191C98.1094 33.4666 97.5347 32.9742 96.8031 32.6421C96.0693 32.31 95.2286 32.144 94.2811 32.144H89.021ZM94.302 38.4213H91.8809V34.6347H94.302C94.9034 34.6347 95.3865 34.8065 95.7511 35.1502C96.1134 35.4963 96.2945 35.9584 96.2945 36.5367C96.2945 37.1033 96.1134 37.5585 95.7511 37.9022C95.3865 38.2482 94.9034 38.4213 94.302 38.4213ZM107.149 32.144L102.499 45.8969H105.599L106.522 43.0892H111.563L112.486 45.8969H115.607L110.953 32.144H107.149ZM110.768 40.5985H107.316L109.051 35.3L110.768 40.5985ZM119.206 32.144V45.8969H123.692C125.183 45.8969 126.476 45.6019 127.569 45.0121C128.666 44.4199 129.516 43.6036 130.119 42.5632C130.721 41.5251 131.022 40.3407 131.022 39.01C131.022 37.6816 130.721 36.4995 130.119 35.4638C129.516 34.4303 128.666 33.6187 127.569 33.0288C126.476 32.4389 125.183 32.144 123.692 32.144H119.206ZM123.765 43.4062H122.069V34.6347H123.765C124.664 34.6347 125.44 34.8135 126.092 35.1711C126.745 35.5265 127.252 36.0304 127.615 36.683C127.979 37.3356 128.162 38.1112 128.162 39.01C128.162 39.8971 127.979 40.6693 127.615 41.3265C127.252 41.986 126.745 42.497 126.092 42.8592C125.44 43.2239 124.664 43.4062 123.765 43.4062ZM135.028 32.144V45.8969H144.28V43.4062H137.891V40.2466H143.911V37.7559H137.891V34.6347H144.28V32.144H135.028ZM148.08 32.144V45.8969H150.944V40.912H152.975L155.761 45.8969H158.973L155.835 40.4138C156.562 40.0817 157.141 39.5859 157.573 38.9264C158.003 38.2691 158.217 37.4726 158.217 36.5367C158.217 35.5776 158.008 34.7717 157.59 34.1191C157.172 33.4666 156.596 32.9742 155.862 32.6421C155.131 32.31 154.291 32.144 153.344 32.144H148.08ZM153.361 38.4213H150.944V34.6347H153.361C153.965 34.6347 154.448 34.8065 154.81 35.1502C155.175 35.4963 155.357 35.9584 155.357 36.5367C155.357 37.1033 155.175 37.5585 154.81 37.9022C154.448 38.2482 153.965 38.4213 153.361 38.4213ZM162.575 32.144V45.8969H165.439V40.912H167.856C168.792 40.912 169.626 40.7424 170.357 40.4034C171.089 40.0666 171.667 39.572 172.092 38.9194C172.517 38.2668 172.73 37.4726 172.73 36.5367C172.73 35.5776 172.521 34.7717 172.103 34.1191C171.685 33.4666 171.109 32.9742 170.375 32.6421C169.643 32.31 168.804 32.144 167.856 32.144H162.575ZM167.874 38.4213H165.439V34.6347H167.874C168.477 34.6347 168.96 34.8065 169.323 35.1502C169.685 35.4963 169.866 35.9584 169.866 36.5367C169.866 37.1033 169.685 37.5585 169.323 37.9022C168.96 38.2482 168.477 38.4213 167.874 38.4213ZM179.265 32.144L174.614 45.8969H177.715L178.638 43.0892H183.678L184.601 45.8969H187.723L183.069 32.144H179.265ZM182.884 40.5985H179.432L181.167 35.3L182.884 40.5985ZM191.321 32.144V45.8969H199.999V43.4062H194.185V32.144H191.321Z" fill="#4F9E27"/>
<path d="M77.0652 52.5824V57.7728H78.1451V56.3515L78.7861 55.5782L80.0541 57.7728H81.3151L79.5176 54.7004L81.2733 52.5824H79.9217L78.1451 54.7143V52.5824H77.0652ZM85.133 52.5824V57.7728H86.2129V54.6168L88.5469 57.7728H89.3829V52.5824H88.303V55.6688L85.9621 52.5824H85.133ZM96.1827 57.8564C96.5729 57.8564 96.9352 57.7891 97.2696 57.6544C97.604 57.5197 97.8955 57.3304 98.1439 57.0866C98.3924 56.8427 98.5863 56.5582 98.7257 56.2331C98.865 55.908 98.9347 55.555 98.9347 55.1741C98.9347 54.7932 98.8662 54.4403 98.7292 54.1151C98.5922 53.79 98.3994 53.5067 98.1509 53.2652C97.9024 53.0236 97.611 52.8355 97.2766 52.7008C96.9421 52.5661 96.5775 52.4988 96.1827 52.4988C95.7879 52.4988 95.4233 52.5661 95.0889 52.7008C94.7545 52.8355 94.463 53.0236 94.2145 53.2652C93.9661 53.5067 93.7733 53.79 93.6363 54.1151C93.4993 54.4403 93.4308 54.7932 93.4308 55.1741C93.4308 55.555 93.5004 55.908 93.6398 56.2331C93.7791 56.5582 93.973 56.8427 94.2215 57.0866C94.47 57.3304 94.7615 57.5197 95.0959 57.6544C95.4303 57.7891 95.7926 57.8564 96.1827 57.8564ZM96.1827 56.881C95.8669 56.881 95.5824 56.8079 95.3293 56.6616C95.0761 56.5153 94.8764 56.3144 94.7301 56.0589C94.5838 55.8035 94.5106 55.5085 94.5106 55.1741C94.5106 54.8397 94.5838 54.5448 94.7301 54.2893C94.8764 54.0338 95.0761 53.8341 95.3293 53.6901C95.5824 53.5462 95.8669 53.4742 96.1827 53.4742C96.4986 53.4742 96.7831 53.5462 97.0362 53.6901C97.2893 53.8341 97.489 54.0338 97.6354 54.2893C97.7817 54.5448 97.8548 54.8397 97.8548 55.1741C97.8548 55.5085 97.7817 55.8035 97.6354 56.0589C97.489 56.3144 97.2893 56.5153 97.0362 56.6616C96.7831 56.8079 96.4986 56.881 96.1827 56.881ZM102.46 52.5824L103.819 57.7728H105.073L105.978 54.2893L106.884 57.7728H108.138L109.497 52.5824H108.326L107.455 56.2819L106.536 52.5824H105.421L104.501 56.2819L103.63 52.5824H102.46ZM119.195 55.5085V57.7728H120.275V55.5016L121.996 52.5824H120.762L119.731 54.4008L118.7 52.5824H117.467L119.195 55.5085ZM128.203 57.8564C128.593 57.8564 128.956 57.7891 129.29 57.6544C129.624 57.5197 129.916 57.3304 130.164 57.0866C130.413 56.8427 130.607 56.5582 130.746 56.2331C130.885 55.908 130.955 55.555 130.955 55.1741C130.955 54.7932 130.887 54.4403 130.75 54.1151C130.613 53.79 130.42 53.5067 130.171 53.2652C129.923 53.0236 129.631 52.8355 129.297 52.7008C128.963 52.5661 128.598 52.4988 128.203 52.4988C127.808 52.4988 127.444 52.5661 127.109 52.7008C126.775 52.8355 126.483 53.0236 126.235 53.2652C125.986 53.5067 125.794 53.79 125.657 54.1151C125.52 54.4403 125.451 54.7932 125.451 55.1741C125.451 55.555 125.521 55.908 125.66 56.2331C125.8 56.5582 125.993 56.8427 126.242 57.0866C126.49 57.3304 126.782 57.5197 127.116 57.6544C127.451 57.7891 127.813 57.8564 128.203 57.8564ZM128.203 56.881C127.887 56.881 127.603 56.8079 127.35 56.6616C127.097 56.5153 126.897 56.3144 126.75 56.0589C126.604 55.8035 126.531 55.5085 126.531 55.1741C126.531 54.8397 126.604 54.5448 126.75 54.2893C126.897 54.0338 127.097 53.8341 127.35 53.6901C127.603 53.5462 127.887 53.4742 128.203 53.4742C128.519 53.4742 128.803 53.5462 129.057 53.6901C129.31 53.8341 129.509 54.0338 129.656 54.2893C129.802 54.5448 129.875 54.8397 129.875 55.1741C129.875 55.5085 129.802 55.8035 129.656 56.0589C129.509 56.3144 129.31 56.5153 129.057 56.6616C128.803 56.8079 128.519 56.881 128.203 56.881ZM137.065 57.8564C137.474 57.8564 137.838 57.7705 138.159 57.5986C138.479 57.4268 138.731 57.1911 138.915 56.8915C139.098 56.5919 139.19 56.2517 139.19 55.8708V52.5824H138.11V55.8011C138.11 56.0055 138.065 56.1901 137.974 56.355C137.884 56.5199 137.761 56.6488 137.605 56.7417C137.45 56.8346 137.27 56.881 137.065 56.881C136.865 56.881 136.687 56.8346 136.529 56.7417C136.371 56.6488 136.247 56.5199 136.156 56.355C136.065 56.1901 136.02 56.0055 136.02 55.8011V52.5824H134.94V55.8708C134.94 56.2517 135.032 56.5919 135.215 56.8915C135.399 57.1911 135.651 57.4268 135.971 57.5986C136.292 57.7705 136.656 57.8564 137.065 57.8564ZM143.328 52.5824V57.7728H144.408V55.8917H145.175L146.227 57.7728H147.439L146.255 55.7036C146.529 55.5782 146.747 55.3913 146.91 55.1428C147.072 54.8943 147.153 54.5935 147.153 54.2405C147.153 53.8782 147.074 53.574 146.917 53.3279C146.759 53.0817 146.541 52.8959 146.265 52.7705C145.989 52.6451 145.672 52.5824 145.314 52.5824H143.328ZM145.321 54.9512H144.408V53.5229H145.321C145.549 53.5229 145.731 53.588 145.868 53.718C146.005 53.8481 146.074 54.0222 146.074 54.2405C146.074 54.4542 146.005 54.626 145.868 54.7561C145.731 54.8861 145.549 54.9512 145.321 54.9512ZM156.726 53.5229V57.7728H157.806V53.5229H159.102V52.5824H155.409V53.5229H156.726ZM162.92 52.5824V57.7728H164V55.8917H164.766L165.818 57.7728H167.03L165.846 55.7036C166.12 55.5782 166.338 55.3913 166.501 55.1428C166.663 54.8943 166.745 54.5935 166.745 54.2405C166.745 53.8782 166.666 53.574 166.508 53.3279C166.35 53.0817 166.133 52.8959 165.856 52.7705C165.58 52.6451 165.263 52.5824 164.905 52.5824H162.92ZM164.912 54.9512H164V53.5229H164.912C165.14 53.5229 165.322 53.588 165.459 53.718C165.596 53.8481 165.665 54.0222 165.665 54.2405C165.665 54.4542 165.596 54.626 165.459 54.7561C165.322 54.8861 165.14 54.9512 164.912 54.9512ZM172.221 52.5824L170.465 57.7728H171.635L171.984 56.7138H173.886L174.234 57.7728H175.412L173.656 52.5824H172.221ZM173.586 55.7733H172.283L172.938 53.7737L173.586 55.7733ZM179.23 52.5824V57.7728H180.923C181.485 57.7728 181.972 57.6613 182.386 57.4384C182.799 57.2154 183.119 56.9077 183.347 56.5153C183.575 56.1228 183.688 55.6757 183.688 55.1741C183.688 54.6725 183.575 54.2266 183.347 53.8364C183.119 53.4463 182.799 53.1397 182.386 52.9168C181.972 52.6939 181.485 52.5824 180.923 52.5824H179.23ZM180.95 56.8323H180.309V53.5229H180.95C181.289 53.5229 181.582 53.5903 181.828 53.725C182.074 53.8597 182.266 54.0501 182.403 54.2963C182.54 54.5424 182.609 54.8351 182.609 55.1741C182.609 55.5085 182.54 55.8 182.403 56.0485C182.266 56.297 182.074 56.4897 181.828 56.6267C181.582 56.7638 181.289 56.8323 180.95 56.8323ZM187.66 52.5824V57.7728H191.15V56.8323H188.739V55.6409H191.011V54.7004H188.739V53.5229H191.15V52.5824H187.66ZM196.933 57.8564C197.3 57.8564 197.621 57.7902 197.898 57.6579C198.174 57.5255 198.391 57.342 198.549 57.1075C198.707 56.8729 198.786 56.6047 198.786 56.3028C198.786 55.6061 198.37 55.123 197.539 54.8536L196.543 54.5331C196.227 54.4263 196.069 54.2498 196.069 54.0037C196.069 53.8364 196.136 53.7006 196.271 53.5961C196.406 53.4916 196.582 53.4393 196.8 53.4393C197.051 53.4393 197.274 53.5078 197.469 53.6449C197.664 53.7819 197.811 53.9711 197.908 54.2127L198.786 53.8155C198.642 53.4068 198.392 53.0852 198.037 52.8506C197.682 52.6161 197.269 52.4988 196.8 52.4988C196.447 52.4988 196.135 52.5638 195.863 52.6939C195.592 52.8239 195.38 53.005 195.229 53.2373C195.078 53.4695 195.003 53.7389 195.003 54.0455C195.003 54.7514 195.419 55.2415 196.25 55.5155L197.267 55.8499C197.574 55.9521 197.727 56.1239 197.727 56.3655C197.727 56.5327 197.661 56.6662 197.528 56.7661C197.396 56.8659 197.221 56.9159 197.002 56.9159C196.724 56.9159 196.469 56.8346 196.239 56.672C196.01 56.5095 195.83 56.2865 195.7 56.0032L194.815 56.4003C194.917 56.6976 195.071 56.9553 195.278 57.1736C195.485 57.3919 195.731 57.5603 196.017 57.6788C196.302 57.7972 196.608 57.8564 196.933 57.8564Z" fill="#3BB2B8"/>
</g>
<defs>
<linearGradient id="paint0_linear_64_587" x1="0.139954" y1="2.76678" x2="0.139954" y2="76.2432" gradientUnits="userSpaceOnUse">
<stop stop-color="#B4EC51"/>
<stop offset="1" stop-color="#429321"/>
</linearGradient>
<linearGradient id="paint1_linear_64_587" x1="8.67151" y1="0.105896" x2="8.67151" y2="67.7072" gradientUnits="userSpaceOnUse">
<stop stop-color="#42E695"/>
<stop offset="1" stop-color="#3BB2B8"/>
</linearGradient>
<clipPath id="clip0_64_587">
<rect width="200" height="76.3373" fill="white"/>
</clipPath>
</defs>
</svg>
